<svg id="Layer" enable-background="new 0 0 64 64" height="512" viewBox="0 0 64 64" width="512" xmlns="http://www.w3.org/2000/svg"><path d="m52 14h-40c-2.206 0-4 1.794-4 4v8 2c0 .5.188.981.524 1.351 1.479 1.614 2.127 3.864 1.736 6.018l-1.8 9.916c-.212 1.171.104 2.365.865 3.278.763.914 1.882 1.437 3.071 1.437h8.267c2.9 0 5.383-2.071 5.903-4.927l1.649-9.073h4.785c3.309 0 6-2.691 6-6v-2h13c2.206 0 4-1.794 4-4v-6c0-2.206-1.794-4-4-4zm-31.338 32h-8.267l1.801-9.917c.511-2.813-.12-5.724-1.681-8.083h13.089l-2.974 16.357c-.174.952-1.001 1.643-1.968 1.643zm14.338-16c0 1.103-.897 2-2 2h-4.058l.727-4h5.331zm17-6h-40.001l-.002-6h40.003z"/><path d="m20 31c-1.104 0-2 .896-2 2v1c0 1.104.896 2 2 2s2-.896 2-2v-1c0-1.104-.896-2-2-2z"/></svg>