<svg xmlns="http://www.w3.org/2000/svg" viewBox="0 0 373.57 289.67"><defs><style>.cls-1{fill:#231f20;stroke-width:4px;}.cls-1,.cls-2,.cls-3{stroke:#000;stroke-miterlimit:10;}.cls-2{fill:#fff;stroke-width:5px;}.cls-3{fill:#f9edcd;stroke-width:8px;}</style></defs><g id="Layer_2" data-name="Layer 2"><g id="Layer_1-2" data-name="Layer 1"><rect className="cls-1" x="194.08" y="190.8" width="6.1" height="87.7" rx="3.05" transform="translate(60.24 -39.54) rotate(13.5)"/><rect className="cls-1" x="259.81" y="176.59" width="6.1" height="87.7" rx="3.05" transform="translate(58.74 -55.28) rotate(13.5)"/><rect className="cls-1" x="279.9" y="201.1" width="6.1" height="87.7" rx="3.05" transform="translate(65.02 -59.3) rotate(13.5)"/><rect className="cls-1" x="177.83" y="176.59" width="6.1" height="87.7" rx="3.05" transform="translate(56.47 -36.14) rotate(13.5)"/><path className="cls-2" d="M221.39,200.19C205.62,218,175.46,212,166.85,189c-4.38-11.7-11-22.46-20.66-21.9-25.41,1.49-61,24.37-71.78-13.6-4.58-16.15-3.77-34.82,34.67-49.57a15.48,15.48,0,0,0,9.8-16.74c-4.1-28.9-11.94-49.12,44-50.47a15.41,15.41,0,0,0,12.38-6.81c15.39-22.6,36.12-37.61,50.19-19.06,4.53,6,12.24,8.55,18.93,5.76C262.69,9,270,8.61,279.88,28.94c4.17,8.53,16.61,14.36,22.63,7.42C317,19.68,337,33.14,339.18,45.79c2.55,14.71,12.93,21.06,14.51,22.83,23.25,26.08,19.07,68.69,11,72.68-16.58,14.61-29.22,19.26-37.71,20.26a15.2,15.2,0,0,0-13.13,13.76c-2.35,21.42-14.59,54-71.41,20.61a15.87,15.87,0,0,0-20.18,3.29Z"/><path className="cls-3" d="M138.13,96.3C126,273.14-109.23,151,72.87,53.14c-2.1,20,24.37,19,24.37,19s5.1,33.68,28.79,20Z"/><rect x="56.01" y="101.54" width="8.23" height="19.86" rx="4.12" transform="translate(111.71 -4.2) rotate(52.38)"/><rect x="71.14" y="116.51" width="8.23" height="19.86" rx="4.12" transform="translate(129.46 -10.36) rotate(52.38)"/><path className="cls-2" d="M86.44,98.13A13.83,13.83,0,0,1,73.27,78.44c2.27-4.79,3.56-10,.46-12.7-8.2-7.19-26.1-11.09-17.68-25.59,3.58-6.17,9.59-11.46,25.84-4.3a6.83,6.83,0,0,0,8.15-2c7.66-9.81,11.51-18.17,29-1.76a6.81,6.81,0,0,0,5.87,1.7c11.66-2.09,22.6-.32,21.17,9.41a6.78,6.78,0,0,0,4,7.39c7.91,3.22,10.25,5.3,7,14.3-1.36,3.79.64,9.25,4.61,9,9.55-.6,11.5,9.39,8.27,13.81-3.76,5.13-2.55,10.13-2.62,11.13-.95,14.72-15.36,26.1-19.06,24.86-9.55-.64-14.84-3.06-17.73-5.31a6.74,6.74,0,0,0-8.25.14c-7.31,5.65-21.07,11.63-28.11-15.32A6.85,6.85,0,0,0,87,98.1Z"/></g></g></svg>